Coordinates
version=1
nRows=17
nColumns=40
inDegrees=yes

Units are S.I. units (second, meters, Newtons, ...)
Angles are in degrees.

endheader
time	pelvis_tilt	pelvis_list	pelvis_rotation	pelvis_tx	pelvis_ty	pelvis_tz	hip_flexion_r	hip_adduction_r	hip_rotation_r	knee_angle_r	knee_angle_r_beta	ankle_angle_r	subtalar_angle_r	mtp_angle_r	hip_flexion_l	hip_adduction_l	hip_rotation_l	knee_angle_l	knee_angle_l_beta	ankle_angle_l	subtalar_angle_l	mtp_angle_l	lumbar_extension	lumbar_bending	lumbar_rotation	arm_flex_r	arm_add_r	arm_rot_r	elbow_flex_r	pro_sup_r	wrist_flex_r	wrist_dev_r	arm_flex_l	arm_add_l	arm_rot_l	elbow_flex_l	pro_sup_l	wrist_flex_l	wrist_dev_l
     20.06000000	     -4.01230109	     -4.70820637	      0.43245961	      1.02510125	      0.93350991	      0.41155342	     34.88605326	     -6.89400052	     -6.63565074	     71.06330728	     71.06330728	      5.66211082	    -16.70126588	      3.89908452	     15.27264246	     -5.29031423	     -8.13113656	     20.90164286	     20.90164286	     11.99901687	     -8.38360441	     -3.15774005	    -11.43620408	      3.44293432	      0.68300605	     10.89560169	    -13.66290389	      1.74547292	     70.75548824	     45.09130027	      0.00000000	      0.00000000	      8.61021122	    -13.64067691	      4.64910666	     40.10492491	     45.56301299	      0.00000000	      0.00000000
     20.07171429	     -3.79311572	     -4.83442278	      0.06693546	      1.02435821	      0.93402958	      0.41142489	     35.77284570	     -6.71745814	     -6.57608065	     69.28309111	     69.28309111	      5.41276846	    -16.47950721	      3.82634656	     14.20393795	     -5.36572061	     -8.12259689	     20.50255594	     20.50255594	     12.33717674	     -8.85422226	     -3.15467575	    -11.70712613	      3.68626941	      1.30306391	      8.49334523	    -14.53091190	      1.69135760	     67.49324706	     45.19574394	      0.00000000	      0.00000000	     10.49208487	    -13.84369771	      4.56088051	     41.37699086	     45.61442867	      0.00000000	      0.00000000
     20.08342857	     -3.51656814	     -4.85010997	     -0.30734565	      1.02372663	      0.93456962	      0.41124678	     36.43220680	     -6.60290826	     -6.45023720	     67.25361821	     67.25361821	      5.04349082	    -16.25814782	      3.57138001	     13.06615005	     -5.34793272	     -8.34772869	     20.11134215	     20.11134215	     12.60149895	     -9.04688832	     -3.30280517	    -11.93839346	      3.85871821	      1.71618849	      6.70199210	    -14.86060171	      1.17347879	     63.13496594	     45.35776028	      0.00000000	      0.00000000	     12.16862630	    -14.29207863	      4.67120016	     42.91748112	     45.64880183	      0.00000000	      0.00000000
     20.09514286	     -3.33886950	     -4.89937811	     -0.63753810	      1.02307133	      0.93490775	      0.41121223	     37.01558234	     -6.45594673	     -6.44131223	     64.92483914	     64.92483914	      4.34545693	    -16.02832278	      2.69158421	     12.04673147	     -5.36746377	     -8.51970123	     19.69680213	     19.69680213	     12.80447257	     -9.20673164	     -3.73528285	    -12.05710065	      3.97594492	      1.20463384	      6.49307941	    -14.06196519	     -0.40776554	     55.97554217	     45.66219895	      0.00000000	      0.00000000	     13.01524066	    -15.45828003	      5.40144174	     45.07803592	     45.64833460	      0.00000000	      0.00000000
     20.10685714	     -3.08668587	     -4.92220493	     -0.99732105	      1.02253126	      0.93521105	      0.41116343	     37.38734427	     -6.26566938	     -6.39345021	     62.37793178	     62.37793178	      3.95399036	    -15.64430739	      2.81036861	     10.93501284	     -5.35503878	     -8.80395108	     19.29001224	     19.29001224	     13.15848229	     -9.24623739	     -3.83240621	    -12.33693641	      4.13179747	      1.70377943	      4.53634213	    -14.66994715	     -0.57522471	     52.87214868	     45.76535096	      0.00000000	      0.00000000	     14.63468664	    -15.80961974	      5.22620708	     46.83573638	     45.71428297	      0.00000000	      0.00000000
     20.11857143	     -2.94729116	     -4.94755513	     -1.32117470	      1.02196476	      0.93537131	      0.41122790	     37.66887793	     -6.09454478	     -6.51183530	     59.42243598	     59.42243598	      3.15769775	    -15.21702621	      2.19663296	      9.92694566	     -5.34152728	     -9.06251227	     18.80015775	     18.80015775	     13.33168294	     -9.25826622	     -4.21590266	    -12.47679472	      4.23895593	      1.30003851	      4.57596474	    -14.11256788	     -2.09917472	     45.87985405	     46.06067423	      0.00000000	      0.00000000	     15.20735946	    -16.91668427	      5.43501435	     49.62913195	     45.79563407	      0.00000000	      0.00000000
     20.13028571	     -2.77413454	     -4.92430287	     -1.66940095	      1.02153177	      0.93540461	      0.41131197	     37.78347885	     -5.92234083	     -6.62102640	     56.23334696	     56.23334696	      2.68724787	    -14.49184045	      2.43341559	      8.87158951	     -5.26981143	     -9.38590011	     18.32607776	     18.32607776	     13.65348419	     -9.16819104	     -4.32013715	    -12.70788079	      4.34444220	      1.83103118	      2.64296238	    -14.69017871	     -2.28597282	     43.32873718	     46.14539957	      0.00000000	      0.00000000	     16.70985502	    -17.14055268	      5.04860263	     51.41164199	     45.87906021	      0.00000000	      0.00000000
     20.14200000	     -2.71581604	     -4.88355323	     -1.96787112	      1.02117407	      0.93523847	      0.41154504	     37.77525981	     -5.76100012	     -6.88587097	     52.58555990	     52.58555990	      1.71355036	    -13.77486178	      1.45824791	      7.91474333	     -5.19394124	     -9.75110015	     17.77237655	     17.77237655	     13.79041869	     -8.99674344	     -4.89390421	    -12.72314669	      4.38675977	      1.30892693	      2.70992482	    -14.25818589	     -3.96913862	     37.13422398	     46.43219804	      0.00000000	      0.00000000	     16.97041777	    -18.19640583	      4.60527077	     54.66347479	     46.02501712	      0.00000000	      0.00000000
     20.15371429	     -2.67138687	     -4.83963472	     -2.27038938	      1.02093236	      0.93496941	      0.41183448	     37.62155303	     -5.57025754	     -7.23608103	     48.69139862	     48.69139862	      1.17340879	    -12.54767639	      1.83843655	      6.95448986	     -5.09560381	    -10.07051260	     17.21553998	     17.21553998	     14.09326844	     -8.77510888	     -4.99388026	    -12.77191661	      4.48600699	      1.62208381	      0.72858051	    -14.77516555	     -4.11353869	     35.48989826	     46.48491420	      0.00000000	      0.00000000	     18.25574941	    -18.39333598	      4.13074726	     56.23799393	     46.10368825	      0.00000000	      0.00000000
     20.16542857	     -2.55765580	     -4.64790731	     -2.62423501	      1.02093489	      0.93461844	      0.41227945	     37.22560176	     -5.47054594	     -7.60952143	     44.53899679	     44.53899679	      0.59530241	    -11.06571308	      1.81329605	      5.80847437	     -4.84172994	    -10.63946912	     16.48967062	     16.48967062	     14.34033996	     -8.34685548	     -5.30959051	    -12.89159176	      4.34836772	      2.18383805	     -1.05721615	    -15.11255367	     -4.47751703	     33.00553538	     46.58557120	      0.00000000	      0.00000000	     19.42299978	    -18.58999783	      3.57523893	     58.79751549	     46.20786165	      0.00000000	      0.00000000
     20.17714286	     -2.54654235	     -4.49948916	     -2.92717062	      1.02110956	      0.93398419	      0.41287881	     36.69406016	     -5.26793844	     -8.11832989	     40.08665595	     40.08665595	      0.03391478	     -9.37542541	      1.86617996	      4.78545695	     -4.63869207	    -11.09813814	     15.79214397	     15.79214397	     14.59881191	     -7.88054140	     -5.70015316	    -12.83294589	      4.25397519	      2.26148000	     -2.61862684	    -15.33368876	     -4.87398836	     30.91440655	     46.67865050	      0.00000000	      0.00000000	     20.24017386	    -18.99530797	      3.03047406	     61.18130142	     46.30376124	      0.00000000	      0.00000000
     20.18885714	     -2.54638700	     -4.30585863	     -3.20192707	      1.02147413	      0.93323704	      0.41358681	     35.90675602	     -5.07302337	     -8.80392249	     35.28161837	     35.28161837	     -1.23489547	     -7.64216221	      0.40185538	      3.67277925	     -4.39724148	    -11.76093996	     14.89256145	     14.89256145	     14.51019102	     -7.20337795	     -6.92126438	    -12.79165274	      4.11300839	      1.30213852	     -2.52765438	    -14.99551552	     -6.81878761	     26.53761670	     46.97203816	      0.00000000	      0.00000000	     19.22329933	    -20.16704134	      1.23892339	     66.52210996	     46.57890274	      0.00000000	      0.00000000
     20.20057143	     -2.53345503	     -4.13288864	     -3.43612109	      1.02208069	      0.93231788	      0.41445194	     34.98836564	     -4.77646358	     -9.49185839	     30.59579777	     30.59579777	     -1.65822158	     -5.53036457	      1.25206235	      2.60039161	     -4.14429799	    -12.15248950	     14.13576281	     14.13576281	     14.80470793	     -6.77630875	     -7.08458141	    -12.67082040	      4.01632797	      1.53165210	     -4.46345832	    -15.27235276	     -6.97806012	     25.44955083	     47.01028331	      0.00000000	      0.00000000	     20.28599263	    -20.27604374	      0.70160288	     68.12442038	     46.65957950	      0.00000000	      0.00000000
     20.21228571	     -2.28566643	     -3.82196931	     -3.68859808	      1.02320132	      0.93139374	      0.41541678	     33.78986585	     -4.64474671	    -10.34722775	     26.25933344	     26.25933344	     -1.71830664	     -2.87670386	      2.30094326	      1.11244196	     -3.71609371	    -12.77608201	     13.14250420	     13.14250420	     15.08110929	     -5.94202193	     -7.48185734	    -12.77999808	      3.69692447	      1.96880200	     -6.48014004	    -15.46150751	     -7.27314589	     24.35275398	     47.05847778	      0.00000000	      0.00000000	     21.14971138	    -20.30655227	      0.03131988	     70.89114184	     46.77208564	      0.00000000	      0.00000000
     20.22400000	     -2.17372995	     -3.50696009	     -3.89918762	      1.02437776	      0.93004352	      0.41654888	     32.88838420	     -4.51269723	    -11.18784399	     22.67290813	     22.67290813	     -0.77001511	     -0.17658318	      6.30651551	     -0.18137943	     -3.30137722	    -13.34000858	     12.20118647	     12.20118647	     15.13337072	     -5.22697337	     -8.47979447	    -12.76195117	      3.36202624	      1.29182143	     -7.55770186	    -15.38296507	     -8.79753784	     23.17393688	     47.19130824	      0.00000000	      0.00000000	     20.47832521	    -20.83640176	     -2.03405602	     75.48449140	     47.09589568	      0.00000000	      0.00000000
     20.23571429	     -2.11023453	     -3.23321918	     -4.02820572	      1.02575346	      0.92840950	      0.41784460	     31.86560428	     -4.24933706	    -11.88670427	     19.20811587	     19.20811587	     -0.80176491	      1.59559486	      7.45021782	     -1.30544857	     -2.94676017	    -13.64589098	     11.51140345	     11.51140345	     15.50937387	     -4.71737683	     -8.68093224	    -12.53768182	      3.07546728	      1.48547865	     -9.42809255	    -15.42190556	     -8.89259347	     22.53241479	     47.20551554	      0.00000000	      0.00000000	     21.38887946	    -20.94193495	     -2.34708729	     77.31409814	     47.16326259	      0.00000000	      0.00000000
     20.24742857	     -1.88498880	     -2.95606678	     -4.11866785	      1.02738548	      0.92679918	      0.41923945	     30.84214838	     -4.09338124	    -12.69538208	     16.67196369	     16.67196369	     -0.49343197	      3.34576782	      8.76502758	     -2.64897143	     -2.57912467	    -13.98939835	     10.76703053	     10.76703053	     15.91646524	     -4.04444619	     -8.91427098	    -12.53567453	      2.75217330	      1.76363667	    -11.43926784	    -15.43669684	     -9.05049295	     22.16610252	     47.21005609	      0.00000000	      0.00000000	     22.10898386	    -20.96061358	     -2.71480494	     79.83323407	     47.24530017	      0.00000000	      0.00000000
